<?xml version="1.0" encoding="UTF-8"?><svg id="Capa_1" xmlns="http://www.w3.org/2000/svg" xmlns:xlink="http://www.w3.org/1999/xlink" viewBox="0 0 225 225"><defs><style>.cls-1{fill:#fbdd00;}.cls-2{fill:url(#Degradado_sin_nombre_4-2);}.cls-3{fill:url(#Degradado_sin_nombre_2-2);}.cls-4{fill:url(#Degradado_sin_nombre_19);}.cls-5{fill:url(#Degradado_sin_nombre_2);}.cls-6{fill:url(#Degradado_sin_nombre_4);}</style><linearGradient id="Degradado_sin_nombre_19" x1="0" y1="112.5" x2="225" y2="112.5" gradientUnits="userSpaceOnUse"><stop offset="0" stop-color="#e85a27"/><stop offset=".5" stop-color="#285feb"/><stop offset="1" stop-color="#fbdd00"/></linearGradient><linearGradient id="Degradado_sin_nombre_2" x1="33.47" y1="137.47" x2="109.53" y2="137.47" gradientUnits="userSpaceOnUse"><stop offset="0" stop-color="#144eec"/><stop offset="1" stop-color="#0067f9"/></linearGradient><linearGradient id="Degradado_sin_nombre_2-2" x1="54.01" y1="-157.4" x2="88.99" y2="-157.4" gradientTransform="translate(0 -19.93) scale(1 -1)" xlink:href="#Degradado_sin_nombre_2"/><linearGradient id="Degradado_sin_nombre_4" x1="74.47" y1="65.47" x2="150.53" y2="65.47" gradientUnits="userSpaceOnUse"><stop offset="0" stop-color="#f53d01"/><stop offset="1" stop-color="#ff5a00"/></linearGradient><linearGradient id="Degradado_sin_nombre_4-2" x1="95.01" y1="-85.4" x2="129.99" y2="-85.4" gradientTransform="translate(0 -19.93) scale(1 -1)" xlink:href="#Degradado_sin_nombre_4"/></defs><path class="cls-4" d="M112.5,0C50.37,0,0,50.37,0,112.5s50.37,112.5,112.5,112.5,112.5-50.37,112.5-112.5S174.63,0,112.5,0Zm0,220c-59.37,0-107.5-48.13-107.5-107.5S53.13,5,112.5,5s107.5,48.13,107.5,107.5-48.13,107.5-107.5,107.5Z"/><path class="cls-5" d="M71.5,99.44c-21,0-38.03,17.03-38.03,38.03s17.03,38.03,38.03,38.03,38.03-17.03,38.03-38.03-17.03-38.03-38.03-38.03Zm0,71.69c-18.59,0-33.66-15.07-33.66-33.66s15.07-33.66,33.66-33.66,33.66,15.07,33.66,33.66-15.07,33.66-33.66,33.66Z"/><path class="cls-3" d="M54.01,117.48h34.98l-3.18,35.91-14.34,4.06-14.26-4.06-3.18-35.91h-.02Zm28.46,7.35h-21.94l.35,4.36h16.86l-.42,4.53h-11.06l.4,4.28h10.3l-.61,5.87-4.85,1.34-4.92-1.35-.32-3.51h-4.34l.48,6.42,9.1,2.83,8.95-2.55,2.03-22.22h0Z"/><path class="cls-1" d="M153.5,99.44c-21,0-38.03,17.03-38.03,38.03s17.03,38.03,38.03,38.03,38.03-17.03,38.03-38.03-17.03-38.03-38.03-38.03Zm0,71.69c-18.59,0-33.66-15.07-33.66-33.66s15.07-33.66,33.66-33.66,33.66,15.07,33.66,33.66-15.07,33.66-33.66,33.66Z"/><path class="cls-1" d="M136.01,119.98v34.98h34.98v-34.98h-34.98Zm19.03,27.27c0,3.4-2,4.96-4.91,4.96-2.63,0-4.15-1.36-4.93-3.01l2.68-1.62c.52,.91,.98,1.69,2.12,1.69s1.76-.42,1.76-2.07v-11.17h3.29v11.22h0Zm7.77,4.96c-3.05,0-5.03-1.45-5.99-3.36l2.68-1.55c.7,1.15,1.62,2,3.24,2,1.36,0,2.23-.68,2.23-1.62,0-1.12-.89-1.52-2.4-2.19l-.82-.35c-2.37-1.01-3.94-2.28-3.94-4.96,0-2.47,1.88-4.34,4.81-4.34,2.09,0,3.59,.73,4.67,2.63l-2.56,1.64c-.56-1.01-1.17-1.41-2.12-1.41s-1.57,.61-1.57,1.41c0,.98,.61,1.38,2.02,2l.82,.35c2.79,1.19,4.36,2.42,4.36,5.17,0,2.95-2.33,4.57-5.44,4.57h0Z"/><path class="cls-6" d="M112.5,27.44c-21,0-38.03,17.03-38.03,38.03s17.03,38.03,38.03,38.03,38.03-17.03,38.03-38.03-17.03-38.03-38.03-38.03Zm0,71.69c-18.59,0-33.66-15.07-33.66-33.66s15.07-33.66,33.66-33.66,33.66,15.07,33.66,33.66-15.07,33.66-33.66,33.66Z"/><path class="cls-2" d="M95.01,45.2h34.98l-3.18,36.42-14.34,4.12-14.26-4.12-3.19-36.42h0Zm11.71,16.47l-.38-4.59h16.75l.38-4.42h-21.94l1.16,13.52h15.2l-.54,5.79-4.84,1.36-4.92-1.36-.31-3.56h-4.34l.55,7.04,9.03,2.45,8.96-2.44,1.24-13.78h-16Z"/></svg>