<?xml version="1.0" encoding="UTF-8"?>
<svg id="Capa_2" xmlns="http://www.w3.org/2000/svg" viewBox="0 0 76.06 76.06">
  <defs>
    <style>
      .cls-1 {
        fill: #6f6f6f;
      }

      .cls-2 {
        fill: #fff;
      }

      .cls-3 {
        fill: #ffc517;
      }

      .cls-4 {
        fill: #f57e02;
      }

      .cls-5 {
        fill: #ffca2a;
      }
    </style>
  </defs>
  <g id="Capa_1-2" data-name="Capa_1">
    <g>
      <g>
        <circle class="cls-3" cx="38.03" cy="38.03" r="38.03"/>
        <circle class="cls-2" cx="38.03" cy="38.03" r="33.66"/>
      </g>
      <g>
        <path class="cls-5" d="M27.34,38.87h6.65v8.08h-6.65c-.79,0-1.43-.64-1.43-1.43v-5.22c0-.79.64-1.43,1.43-1.43Z"/>
        <path class="cls-3" d="M35.41,30.29h6.65v16.66h-8.08v-15.23c0-.79.64-1.42,1.42-1.42Z"/>
        <path class="cls-4" d="M43.86,22.97h4.72c.86,0,1.56.7,1.56,1.56v22.04c0,.21-.17.37-.37.37h-7.7v-22.18c0-.99.8-1.79,1.79-1.79Z"/>
        <g>
          <path class="cls-1" d="M25.59,50.39c-.07-.16-.18-.29-.32-.38-.14-.09-.32-.14-.51-.14-.18,0-.35.04-.49.13-.15.08-.26.21-.35.36s-.13.34-.13.55.04.39.13.55c.08.16.2.28.35.36.15.08.31.13.49.13.17,0,.33-.04.46-.11s.25-.18.33-.32c.08-.14.13-.3.14-.48h-1.04v-.2h1.3v.18c-.01.22-.07.41-.18.59-.11.18-.25.31-.43.42-.18.1-.38.15-.6.15s-.44-.05-.62-.16c-.19-.11-.33-.26-.44-.45-.11-.19-.16-.41-.16-.65s.05-.46.16-.65c.11-.19.25-.34.44-.45.19-.11.39-.16.62-.16.26,0,.49.07.69.2.2.13.34.32.43.55h-.29Z"/>
          <path class="cls-1" d="M26.76,52.05c-.14-.08-.26-.2-.34-.35-.08-.15-.13-.32-.13-.52s.04-.38.13-.52c.08-.15.2-.27.35-.35.15-.08.31-.12.49-.12s.35.04.49.12c.15.08.26.2.35.35.08.15.13.32.13.52s-.04.37-.13.52-.2.27-.35.35c-.15.08-.31.12-.49.12s-.34-.04-.49-.12ZM27.6,51.87c.11-.06.2-.14.26-.26.07-.12.1-.26.1-.43s-.03-.31-.1-.43-.15-.2-.26-.26c-.11-.06-.23-.09-.35-.09s-.24.03-.35.09c-.11.06-.19.14-.26.26s-.1.26-.1.43.03.31.1.43.15.2.26.26c.11.06.22.09.35.09s.24-.03.35-.09Z"/>
          <path class="cls-1" d="M29.03,52.05c-.14-.08-.26-.2-.34-.35-.08-.15-.13-.32-.13-.52s.04-.38.13-.52c.08-.15.2-.27.35-.35.15-.08.31-.12.49-.12s.35.04.49.12c.15.08.26.2.35.35.08.15.13.32.13.52s-.04.37-.13.52-.2.27-.35.35c-.15.08-.31.12-.49.12s-.34-.04-.49-.12ZM29.87,51.87c.11-.06.2-.14.26-.26.07-.12.1-.26.1-.43s-.03-.31-.1-.43-.15-.2-.26-.26c-.11-.06-.23-.09-.35-.09s-.24.03-.35.09c-.11.06-.19.14-.26.26s-.1.26-.1.43.03.31.1.43.15.2.26.26c.11.06.22.09.35.09s.24-.03.35-.09Z"/>
          <path class="cls-1" d="M32.23,50.31c.13.08.23.19.29.32v-.42h.25v1.98c0,.18-.04.33-.11.47-.08.14-.18.24-.32.32s-.29.11-.47.11c-.25,0-.45-.06-.62-.18s-.27-.28-.31-.48h.24c.04.13.12.24.24.32s.26.12.44.12c.12,0,.24-.03.34-.08.1-.05.18-.13.23-.23.06-.1.08-.23.08-.37v-.48c-.06.13-.16.24-.29.33s-.29.13-.47.13-.34-.04-.48-.12-.25-.2-.33-.35c-.08-.15-.12-.32-.12-.52s.04-.37.12-.52c.08-.15.19-.27.33-.35.14-.08.3-.12.48-.12s.34.04.47.13ZM32.42,50.77c-.06-.12-.15-.21-.26-.27s-.23-.1-.36-.1-.26.03-.37.09-.19.15-.26.27c-.06.12-.09.25-.09.42s.03.3.09.42c.06.12.15.21.26.27.11.06.23.09.37.09s.25-.03.36-.1.2-.15.26-.27c.06-.12.1-.25.1-.41s-.03-.29-.1-.41Z"/>
          <path class="cls-1" d="M33.57,49.53v2.61h-.25v-2.61h.25Z"/>
          <path class="cls-1" d="M35.87,51.27h-1.6c0,.15.04.27.11.37s.15.18.25.23c.1.05.22.08.34.08.16,0,.3-.04.4-.12.11-.08.18-.18.22-.31h.26c-.05.19-.15.34-.3.46-.15.12-.35.18-.58.18-.18,0-.34-.04-.49-.12-.14-.08-.26-.2-.34-.35-.08-.15-.12-.32-.12-.52s.04-.38.12-.53c.08-.15.19-.27.34-.35s.31-.12.49-.12.34.04.48.12.24.19.32.32c.07.14.11.29.11.45,0,.08,0,.15,0,.19ZM35.54,50.7c-.06-.1-.14-.18-.25-.23s-.22-.08-.34-.08c-.18,0-.34.06-.47.18s-.2.28-.22.5h1.36c0-.14-.03-.27-.09-.37Z"/>
          <path class="cls-1" d="M38.73,51.55h-1.12l-.22.59h-.26l.9-2.44h.28l.9,2.44h-.26l-.22-.59ZM38.66,51.35l-.49-1.34-.49,1.34h.98Z"/>
          <path class="cls-1" d="M41.08,50.39c.15.14.22.35.22.62v1.13h-.24v-1.1c0-.21-.05-.37-.16-.48-.1-.11-.25-.17-.43-.17s-.33.06-.45.18c-.11.12-.17.29-.17.52v1.05h-.25v-1.93h.25v.33c.06-.12.15-.21.26-.27.12-.06.25-.09.39-.09.23,0,.42.07.57.21Z"/>
          <path class="cls-1" d="M41.85,50.65c.08-.15.19-.27.33-.35.14-.08.3-.12.48-.12s.34.04.48.13.23.19.29.33v-.42h.25v1.93h-.25v-.43c-.06.13-.16.24-.29.33s-.29.13-.48.13-.33-.04-.47-.12-.25-.2-.33-.35c-.08-.15-.12-.32-.12-.52s.04-.37.12-.52ZM43.32,50.77c-.06-.12-.15-.21-.26-.27s-.23-.1-.36-.1-.26.03-.37.09-.19.15-.26.27c-.06.12-.09.25-.09.42s.03.3.09.42c.06.12.15.21.26.27.11.06.23.09.37.09s.25-.03.36-.1.2-.15.26-.27c.06-.12.1-.25.1-.41s-.03-.29-.1-.41Z"/>
          <path class="cls-1" d="M44.47,49.53v2.61h-.25v-2.61h.25Z"/>
          <path class="cls-1" d="M46.63,50.21l-1.14,2.84h-.26l.37-.92-.79-1.92h.27l.66,1.65.64-1.65h.25Z"/>
          <path class="cls-1" d="M47.28,50.42v1.2c0,.12.02.2.07.24.04.04.12.07.24.07h.23v.21h-.27c-.17,0-.3-.04-.39-.12-.08-.08-.13-.21-.13-.4v-1.2h-.27v-.21h.27v-.48h.25v.48h.53v.21h-.53Z"/>
          <path class="cls-1" d="M48.22,49.79s-.05-.08-.05-.13.02-.09.05-.13c.04-.03.08-.05.13-.05s.09.02.13.05c.04.03.05.08.05.13s-.02.1-.05.13c-.04.04-.08.05-.13.05s-.09-.02-.13-.05ZM48.47,50.21v1.93h-.25v-1.93h.25Z"/>
          <path class="cls-1" d="M49.04,50.65c.08-.15.19-.27.33-.35.14-.08.3-.12.48-.12.24,0,.43.06.59.18.15.12.25.28.3.48h-.26c-.03-.14-.1-.25-.21-.33-.11-.08-.25-.12-.41-.12-.13,0-.25.03-.35.09-.1.06-.19.15-.25.26-.06.12-.09.26-.09.43s.03.31.09.43c.06.12.14.21.25.26.1.06.22.09.35.09.16,0,.3-.04.41-.12.11-.08.18-.19.21-.33h.26c-.04.2-.14.36-.3.48-.16.12-.35.18-.59.18-.18,0-.34-.04-.48-.12-.14-.08-.25-.2-.33-.35-.08-.15-.12-.32-.12-.52s.04-.38.12-.52Z"/>
          <path class="cls-1" d="M51.32,52.02c-.14-.1-.22-.24-.23-.42h.25c.01.11.06.2.15.26.09.07.21.1.37.1.13,0,.24-.03.32-.1.08-.06.11-.14.11-.24,0-.07-.02-.12-.06-.16s-.1-.08-.16-.1c-.06-.02-.15-.05-.26-.08-.14-.04-.26-.08-.35-.11-.09-.04-.17-.09-.23-.17-.06-.07-.09-.17-.09-.3,0-.09.03-.18.08-.26.06-.08.14-.14.24-.19.1-.05.22-.07.35-.07.21,0,.37.05.5.16.13.1.2.25.2.43h-.25c0-.11-.05-.2-.13-.27-.08-.07-.19-.1-.33-.1-.12,0-.23.03-.3.09s-.12.13-.12.22c0,.08.02.14.07.19s.1.09.17.11c.07.03.16.06.28.09.14.04.25.07.33.11.08.04.15.09.21.16s.09.16.09.27c0,.1-.03.2-.08.28-.06.08-.14.15-.24.19-.1.05-.22.07-.35.07-.22,0-.4-.05-.54-.15Z"/>
        </g>
      </g>
    </g>
  </g>
</svg>