<?xml version="1.0" encoding="UTF-8"?><svg id="Capa_1" xmlns="http://www.w3.org/2000/svg" viewBox="0 0 76.06 76.06"><defs><style>.cls-1{fill:#f8f8f8;}.cls-2{fill:#ff5f00;}</style></defs><g><circle class="cls-2" cx="38.03" cy="38.03" r="38.03"/><circle class="cls-1" cx="38.03" cy="38.03" r="33.66"/></g><path class="cls-2" d="M32.04,36.43c-.31-1.36-1.47-2.25-2.79-2.25h-2.02c-.39,0-.68,.25-.78,.6l-1.91,7.11h1.35c.37,0,.67-.25,.78-.59l1.41-5.23h1.08c.46,0,.89,.31,1,.81,.14,.6-.32,1.24-1,1.24h-.56c-.38,0-.68,.25-.78,.59l-.35,1.3h1.75c2.03,0,3.19-1.98,2.83-3.57h0Zm-8.55,1.53h1.02c.38,0,.68-.24,.78-.6l.34-1.29h-2.19c-1.25,0-2.4,.77-2.8,2.25-.48,1.85,.92,3.56,2.75,3.56h.68l.39-1.43c.07-.24-.12-.45-.35-.45h-.62c-1.35,0-1.36-2.04,0-2.04h0Zm13.53-1.9h-4.26l-.19,.73c-.13,.52,.25,1.01,.78,1.01h3.14c.22,0,.13,.24,.11,.29l-.47,1.74c-.02,.08-.05,.29-.3,.29h-1.91c-.29,0-.29-.43,0-.43h1.18c.37,0,.67-.25,.78-.59l.19-.72h-2.65c-2.14,0-2.38,3.49-.04,3.49h3.14c.61,.01,1.13-.38,1.28-.96l.77-2.83c.26-1.05-.53-2.01-1.56-2.01h0Zm18.13-1.88h-1.03c-.27,0-.5,.17-.57,.43l-1.95,7.27c1.13,0,2.18-.75,2.45-1.89l1.45-5.37c.07-.24-.11-.45-.36-.45h0Zm-12.91,1.9h0s-2.64,0-2.64,0l-1.43,5.36c-.07,.24,.12,.45,.35,.45h1.03c.26,0,.5-.16,.57-.43l.94-3.5h1.08c.68,0,1.17,.64,.99,1.28l-.58,2.19c-.07,.24,.1,.45,.35,.45h1.04c.25,0,.5-.16,.56-.43l.48-1.81c.49-1.81-.87-3.57-2.75-3.57h0Zm5.37,4.08c-.2,0-.33-.19-.28-.37l.44-1.64c.05-.21,.2-.33,.43-.33h1.8c.14,0,.25,.13,.21,.28l-.04,.14c-.03,.11-.1,.16-.21,.16h-1.18c-.38,0-.69,.25-.78,.59l-.19,.71h2.92c.57,0,1.11-.36,1.27-.96l.17-.66c.27-1.04-.51-2.01-1.55-2.01h-2.59c-.98,0-1.85,.66-2.11,1.62l-.59,2.19c-.27,.97,.45,2.01,1.55,2.01h3.65c.37,0,.67-.25,.78-.58l.31-1.15h-4.01Z"/></svg>