<?xml version="1.0" encoding="UTF-8"?>
<svg id="Capa_2" xmlns="http://www.w3.org/2000/svg" xmlns:xlink="http://www.w3.org/1999/xlink" viewBox="0 0 76.06 76.06">
  <defs>
    <style>
      .cls-1 {
        fill: #ffcb2b;
      }

      .cls-2 {
        fill: #ffa40c;
      }

      .cls-3 {
        fill: #ffa713;
      }

      .cls-4 {
        fill: #fff;
      }

      .cls-5 {
        fill: url(#Degradado_sin_nombre_4);
      }

      .cls-6 {
        fill: #f5820b;
      }
    </style>
    <linearGradient id="Degradado_sin_nombre_4" data-name="Degradado sin nombre 4" x1="0" y1="38.03" x2="76.06" y2="38.03" gradientUnits="userSpaceOnUse">
      <stop offset="0" stop-color="#f5820b"/>
      <stop offset="1" stop-color="#ffcb2b"/>
    </linearGradient>
  </defs>
  <g id="Capa_1-2" data-name="Capa_1">
    <g>
      <g>
        <circle class="cls-5" cx="38.03" cy="38.03" r="38.03"/>
        <circle class="cls-4" cx="38.03" cy="38.03" r="33.66"/>
      </g>
      <g>
        <path class="cls-3" d="M25.03,48.89l5.5,2.05,10.01-10.83-9.61-19.49c-.32-.64-1.23-.64-1.55,0l-4.35,28.27Z"/>
        <path class="cls-2" d="M25.03,48.89l11.95,6.45c.81.44,1.81.27,2.43-.4l8.95-9.68-9.61-19.49c-.32-.64-1.23-.64-1.55,0l-12.18,23.13Z"/>
        <polygon class="cls-6" points="35.28 29.44 42.79 41.33 25.08 48.99 35.28 29.44"/>
        <path class="cls-1" d="M25.08,48.99l12.28,6.73c.48.26,1.07.26,1.55,0l12.12-6.73-3.03-21.52c-.1-.71-.97-.99-1.47-.48l-21.44,22Z"/>
      </g>
    </g>
  </g>
</svg>