<?xml version="1.0" encoding="UTF-8"?><svg id="Capa_1" xmlns="http://www.w3.org/2000/svg" viewBox="0 0 76.06 76.06"><defs><style>.cls-1{fill:#f8f8f8;}.cls-2{fill:#ff3a03;}</style></defs><g><circle class="cls-2" cx="38.03" cy="38.03" r="38.03"/><circle class="cls-1" cx="38.03" cy="38.03" r="33.66"/></g><path class="cls-2" d="M35.32,31.36h-5.42c-2.73-.72-8.91-.53-8.91,5.11,0,2.06,1.02,3.5,2.39,4.17-1.71,1.57-2.53,2.31-2.53,3.36,0,.75,.31,1.44,1.22,1.83-.97,.92-1.53,1.58-1.53,2.83,0,2.19,1.92,3.47,6.94,3.47s7.64-1.8,7.64-5c0-4.01-3.08-3.86-10.36-4.3l.92-1.47c1.86,.52,8.11,.68,8.11-4.64,0-1.28-.53-2.17-1.02-2.81l2.56-.19v-2.36Zm-4.33,16.52c0,2.19-7.16,2.19-7.16,.17,0-.56,.36-1.02,.72-1.47,5.31,.36,6.44,.23,6.44,1.31Zm-3.47-9.19c-3.61,0-3.45-4.86,.08-4.86s3.47,4.86-.08,4.86Zm9.1,6.86v-2.19c1.83-.25,1.86-.14,1.86-.75v-8.16c0-.58-.14-.5-1.86-1.11l.31-2.25h5.75v11.52c0,.44,.03,.5,.44,.56l1.42,.19v2.19h-7.91Zm3.58-16.69c-1.58,0-2.5-.92-2.5-2.5s.92-2.44,2.5-2.44,2.53,.86,2.53,2.44-.92,2.5-2.53,2.5Zm15.31,15.61c-1.19,.58-2.94,1.11-4.53,1.11-3.3,0-4.55-1.33-4.55-4.47v-7.27c0-.37,.07-.28-2.17-.28v-2.47c2.44-.28,3.42-1.5,3.72-4.53h2.64c0,4.5-.09,4.22,.22,4.22h3.91v2.78h-4.14v6.64c0,.47-.34,3.51,4.14,1.83l.75,2.44Z"/></svg>