<?xml version="1.0" encoding="UTF-8"?>
<svg id="Capa_2" xmlns="http://www.w3.org/2000/svg" viewBox="0 0 76.06 76.06">
  <defs>
    <style>
      .cls-1 {
        fill: #49021f;
      }

      .cls-2 {
        fill: #f36;
      }
    </style>
  </defs>
  <g id="Capa_1-2" data-name="Capa_1">
    <g>
      <g>
        <circle class="cls-2" cx="38.03" cy="38.03" r="38.03"/>
        <circle class="cls-1" cx="38.03" cy="39.03" r="33.66"/>
      </g>
      <g>
        <path class="cls-2" d="M30.2,50.5h-5.67c.01-.97.03-2.38.04-4.22s.03-4.34.03-7.49c0-1.33,0-3-.02-5.03-.01-2.03-.03-4.1-.05-6.21h5.67c-.01,1.57-.03,3.37-.04,5.41s-.03,3.85-.03,5.44c0,3.23,0,5.73.03,7.5s.03,3.3.04,4.6Z"/>
        <path class="cls-2" d="M51.53,50.66c-.27,0-.67,0-1.17.02s-.97.02-1.38.02c-2.43,0-4.39-.11-5.85-.33s-2.77-.61-3.9-1.17c-1.59-.77-2.79-1.77-3.61-3.01s-1.23-2.65-1.23-4.24.45-3.13,1.35-4.46,2.24-2.36,4.04-3.1c.95-.41,2-.72,3.15-.93s2.28-.33,3.4-.37l-.05-7.7h5.26c0,.33,0,1.79-.03,4.38s-.03,5.52-.03,8.79c0,2.82,0,5.22.03,7.2s.03,3.62.03,4.92ZM46.52,39.86v-2.83c-.79,0-1.54.06-2.26.18s-1.38.33-1.97.63c-.83.39-1.48.96-1.95,1.71s-.69,1.62-.69,2.61c0,.89.21,1.67.62,2.34s.98,1.21,1.7,1.64c.59.33,1.25.58,1.97.74s1.47.24,2.25.24h.33c0-.11,0-.79,0-2.03s0-2.98,0-5.22Z"/>
      </g>
    </g>
  </g>
</svg>