<?xml version="1.0" encoding="UTF-8"?>
<svg id="Capa_2" xmlns="http://www.w3.org/2000/svg" viewBox="0 0 76.06 76.06">
  <defs>
    <style>
      .cls-1 {
        fill: #0868ac;
      }

      .cls-2 {
        fill: #fff;
      }
    </style>
  </defs>
  <g id="Capa_1-2" data-name="Capa_1">
    <g>
      <g>
        <circle class="cls-1" cx="38.03" cy="38.03" r="38.03"/>
        <circle class="cls-2" cx="38.03" cy="38.03" r="33.66"/>
      </g>
      <g id="uKP5jr">
        <g>
          <path class="cls-1" d="M27.9,23.55c-.19,1.21-.54,2.44-.56,3.67-.07,3.29,1.13,6.15,3.26,8.62,2.22,2.57,4.97,4.3,8.33,4.94,3.37.64,6.59.3,9.5-1.68.3-.2.57-.44.84-.68.25-.23.47-.49.71-.74.05.04.1.08.15.11-.61.83-1.15,1.71-1.83,2.48-2.04,2.29-4.65,3.43-7.69,3.78-7.18.83-13.35-4.42-14.99-10.1-.83-2.88-.79-5.69.77-8.33.45-.76,1.04-1.43,1.52-2.08Z"/>
          <path class="cls-1" d="M50.77,31.14c-1.17,2.39-2.92,3.92-5.39,4.56-5.26,1.37-9.91-1.4-11.96-5.66-1.41-2.94-.95-6.34,1.18-8.75-.13.58-.3,1.16-.38,1.75-.34,2.56.46,4.8,2.05,6.76,2.14,2.66,4.94,4.08,8.36,4.1,2.33.01,4.36-.81,5.93-2.59.03-.04.08-.06.21-.16Z"/>
          <path class="cls-1" d="M31.51,52.47c.27.03.49.05.8.08-.11.4-.18.78-.32,1.14-.05.11-.28.2-.43.2-1.26.01-2.52.04-3.78,0-1.66-.05-2.53-.94-2.45-2.6.07-1.56.48-3.05,1.8-4.05,1.16-.88,2.49-1,3.82-.43,1.17.5,1.71,1.77,1.37,3.12-.18.71-.45,1.4-.68,2.09-.04.13-.08.27-.13.45ZM28.91,52.49c.22,0,.44.04.64-.01.18-.05.42-.18.47-.34.26-.78.5-1.58.67-2.38.18-.86-.1-1.43-.72-1.68-.8-.33-1.8-.08-2.23.68-.3.53-.55,1.15-.63,1.75-.22,1.61.17,1.99,1.8,1.99Z"/>
          <path class="cls-1" d="M43.87,52.58c.03.09.04.11.04.13-.22,1.24-.22,1.26-1.47,1.25-.68,0-1.37,0-2.04-.08-1.16-.15-1.68-.74-1.55-1.9.09-.82.29-1.67.63-2.43.66-1.45,3.05-2.07,4.39-1.2.25.16.53.49.54.76.03.72-.05,1.45-.14,2.18-.01.09-.3.21-.46.21-.94.02-1.87,0-2.81.02-.23,0-.59-.15-.61.3-.01.38.19.63.55.69.35.06.71.07,1.07.08.63.01,1.25,0,1.85,0ZM40.7,50.36c.61,0,1.17.02,1.72,0,.18,0,.51-.12.51-.2.01-.2-.08-.56-.21-.59-.41-.11-.85-.18-1.26-.12-.42.06-.7.37-.76.93Z"/>
          <path class="cls-1" d="M49.82,26.59c-1.27,2.06-3.22,2.65-5.45,2.27-2.54-.43-4.28-1.98-5.1-4.43-.55-1.63-.24-3.17.9-4.64-.84,3.27,1.13,5.76,2.92,6.84,2.03,1.22,4.97,1.58,6.72-.03Z"/>
          <path class="cls-1" d="M35.24,48.08c-.19.97-.37,1.86-.54,2.75-.07.35-.14.71-.15,1.06-.01.37.18.61.58.63.02,0,.04,0,.05,0,1.2.12,1.22.09,1.45-1.07.19-.97.45-1.92.61-2.89.07-.44.27-.52.65-.49.26.02.53,0,.89,0-.13.69-.24,1.32-.37,1.94-.24,1.16-.5,2.31-.74,3.47-.06.28-.18.39-.47.39-.84-.01-1.69,0-2.54,0-1.14-.01-1.8-.66-1.66-1.76.16-1.26.46-2.5.72-3.75.02-.11.2-.26.31-.27.37-.03.74-.01,1.2-.01Z"/>
          <path class="cls-1" d="M55.53,47.23c-.55.73-1.03,1.38-1.51,2.02-.57.76-1.13,1.53-1.73,2.28-.47.58-.88,1.18-.98,1.94-.05.34-.22.45-.55.43-.37-.02-.75,0-1.26,0,.72-1.39-.07-2.6-.34-3.95.51,0,.97-.01,1.42.01.1,0,.23.14.28.24.09.19.13.4.22.74.35-.48.63-.87.91-1.27.46-.66.93-1.32,1.37-2,.2-.31.42-.45.79-.42.41.03.83,0,1.38,0Z"/>
          <path class="cls-1" d="M50.66,49.45c-1.03,0-2.01.02-3,0-.43-.01-.61.16-.68.56-.21,1.07-.47,2.14-.64,3.21-.09.55-.31.74-.84.67-.23-.03-.46,0-.78,0,.14-.67.25-1.28.38-1.88.24-1.16.5-2.31.73-3.47.07-.35.23-.46.58-.45.95.02,1.9,0,2.86,0,1.02,0,1.3.26,1.39,1.36Z"/>
          <path class="cls-1" d="M24.7,49.92c-.44,1.8-.82,3.5-1.28,5.17-.22.81-.83,1.23-1.7,1.2-.37-.01-.75,0-1.19,0,.09-.44.15-.81.26-1.16.03-.1.24-.23.35-.22.57.03.83-.32.95-.78.29-1.13.53-2.27.79-3.4.18-.8.18-.81.97-.81.23,0,.46,0,.84,0Z"/>
          <path class="cls-1" d="M24.99,48.14c-.22,1.5.04,1.34-1.7,1.23-.1-1.19.32-1.5,1.7-1.23Z"/>
        </g>
      </g>
    </g>
  </g>
</svg>