<?xml version="1.0" encoding="UTF-8"?>
<svg id="Capa_2" xmlns="http://www.w3.org/2000/svg" viewBox="0 0 76.06 76.06">
  <defs>
    <style>
      .cls-1 {
        fill: #99f;
      }

      .cls-2 {
        fill: #00005b;
      }
    </style>
  </defs>
  <g id="Capa_1-2" data-name="Capa_1">
    <g>
      <g>
        <circle class="cls-1" cx="38.03" cy="38.03" r="38.03"/>
        <circle class="cls-2" cx="38.03" cy="38.03" r="33.66"/>
      </g>
      <g>
        <path class="cls-1" d="M38.87,37.02c-.63,1.17-1.63,2.12-2.98,2.84-1.35.72-3.06,1.08-5.12,1.08h-4.21v9.63h-5.03v-25.09h9.24c1.94,0,3.59.34,4.96,1.01,1.37.67,2.39,1.59,3.07,2.77.68,1.17,1.02,2.5,1.02,3.99,0,1.34-.32,2.6-.95,3.77ZM33.64,35.93c.67-.63,1.01-1.53,1.01-2.68,0-2.44-1.37-3.67-4.1-3.67h-3.99v7.3h3.99c1.39,0,2.42-.32,3.09-.95Z"/>
        <path class="cls-1" d="M50.95,31.27c1.04-.6,2.23-.9,3.58-.9v5.28h-1.33c-1.58,0-2.77.37-3.58,1.11s-1.2,2.04-1.2,3.88v9.92h-5.03v-19.91h5.03v3.09c.65-1.05,1.49-1.88,2.53-2.48Z"/>
      </g>
    </g>
  </g>
</svg>