<?xml version="1.0" encoding="UTF-8"?>
<svg id="Capa_2" xmlns="http://www.w3.org/2000/svg" viewBox="0 0 76.06 76.06">
  <defs>
    <style>
      .cls-1 {
        fill: #fff;
      }

      .cls-2 {
        fill: #24c6e0;
      }
    </style>
  </defs>
  <g id="Capa_1-2" data-name="Capa_1">
    <g>
      <g>
        <circle class="cls-2" cx="38.03" cy="38.03" r="38.03"/>
        <circle class="cls-1" cx="38.03" cy="38.03" r="33.66"/>
      </g>
      <g>
        <path class="cls-2" d="M19.01,46.01c-.94-.4-1.68-.98-2.22-1.73-.54-.75-.82-1.64-.84-2.66h3.6c.05.69.29,1.23.73,1.63.44.4,1.04.6,1.81.6s1.4-.19,1.85-.56.67-.87.67-1.48c0-.5-.15-.9-.46-1.22-.3-.32-.68-.57-1.14-.76s-1.08-.39-1.88-.61c-1.09-.32-1.97-.64-2.65-.95s-1.26-.78-1.75-1.42c-.49-.63-.73-1.48-.73-2.53,0-.99.25-1.86.74-2.59.5-.74,1.19-1.3,2.09-1.69.9-.39,1.92-.59,3.07-.59,1.73,0,3.13.42,4.21,1.26,1.08.84,1.68,2.01,1.79,3.52h-3.7c-.03-.58-.28-1.05-.73-1.43-.46-.38-1.06-.56-1.81-.56-.66,0-1.18.17-1.57.5s-.59.82-.59,1.46c0,.45.15.82.44,1.12.3.3.66.54,1.1.72.44.18,1.06.4,1.86.64,1.09.32,1.98.64,2.66.96.69.32,1.28.8,1.78,1.44.5.64.74,1.48.74,2.52,0,.9-.23,1.73-.7,2.5-.46.77-1.14,1.38-2.04,1.84s-1.96.68-3.19.68c-1.17,0-2.22-.2-3.16-.6Z"/>
        <path class="cls-2" d="M34.36,32.4v4.2h5.64v2.66h-5.64v4.44h6.36v2.74h-9.72v-16.78h9.72v2.74h-6.36Z"/>
        <path class="cls-2" d="M47.22,45.51c-1.31-.74-2.35-1.76-3.12-3.06-.77-1.3-1.15-2.78-1.15-4.43s.38-3.1,1.15-4.4c.77-1.3,1.81-2.32,3.12-3.06,1.31-.74,2.75-1.1,4.32-1.1s3.03.37,4.33,1.1c1.3.74,2.34,1.76,3.1,3.06.76,1.3,1.14,2.77,1.14,4.4s-.38,3.12-1.14,4.43c-.76,1.3-1.8,2.32-3.11,3.06-1.31.74-2.75,1.1-4.32,1.1s-3.01-.37-4.32-1.1ZM54.21,42.93c.77-.46,1.37-1.11,1.8-1.96.43-.85.65-1.83.65-2.95s-.22-2.1-.65-2.94c-.43-.84-1.03-1.48-1.8-1.93-.77-.45-1.66-.67-2.66-.67s-1.9.22-2.68.67c-.78.45-1.38,1.09-1.81,1.93-.43.84-.65,1.82-.65,2.94s.22,2.1.65,2.95c.43.85,1.04,1.5,1.81,1.96s1.67.68,2.68.68,1.9-.23,2.66-.68Z"/>
      </g>
    </g>
  </g>
</svg>