<?xml version="1.0" encoding="UTF-8"?>
<svg id="Capa_2" xmlns="http://www.w3.org/2000/svg" viewBox="0 0 76.06 76.06">
  <defs>
    <style>
      .cls-1 {
        fill: #fff;
      }
    </style>
  </defs>
  <g id="Capa_1-2" data-name="Capa_1">
    <g>
      <g>
        <circle cx="38.03" cy="38.03" r="38.03"/>
        <circle class="cls-1" cx="38.03" cy="38.03" r="33.66"/>
      </g>
      <g>
        <g id="Z583WM">
          <path d="M20.96,14.25c0-.41.23-.54.74-.39,1.26.36,2.53.73,3.79,1.09,9.62,2.77,19.24,5.54,28.86,8.31.16.04.32.07.46.14.31.15.37.38.15.65-.09.11-.2.21-.31.31-8.12,7.82-16.25,15.63-24.37,23.45-.06.06-.13.13-.2.19-.46.4-.71.34-.86-.26-.44-1.75-.86-3.5-1.3-5.24-2.3-9.3-4.59-18.6-6.89-27.9-.03-.12-.06-.24-.09-.34ZM35.31,41.91c-2.45-.7-4.81-1.38-7.24-2.07.61,2.48,1.2,4.84,1.81,7.3,1.83-1.76,3.59-3.46,5.43-5.22ZM26.25,30.84c2.41.69,4.73,1.36,7.13,2.05-.6-2.44-1.18-4.78-1.78-7.21-1.81,1.74-3.54,3.41-5.35,5.15ZM31.07,25.13c-2.4-.69-4.72-1.35-7.13-2.04.61,2.45,1.18,4.78,1.78,7.19,1.81-1.75,3.54-3.41,5.35-5.15ZM40.62,27.89c.6,2.44,1.18,4.78,1.78,7.2,1.81-1.75,3.55-3.42,5.35-5.15-2.42-.7-4.72-1.36-7.13-2.05ZM34.53,33.22c2.42.7,4.73,1.36,7.12,2.05-.61-2.44-1.18-4.78-1.78-7.2-1.81,1.74-3.53,3.4-5.34,5.15ZM23.65,21.91c1.8-1.74,3.54-3.41,5.34-5.15-2.41-.69-4.71-1.35-7.12-2.04.6,2.44,1.18,4.77,1.78,7.19ZM46.87,21.91c.6,2.44,1.18,4.76,1.77,7.18,1.81-1.75,3.55-3.41,5.33-5.13-2.39-.69-4.68-1.35-7.11-2.05ZM40.31,26.61c1.79-1.72,3.49-3.37,5.26-5.07-2.38-.68-4.65-1.34-7.01-2.01.59,2.4,1.16,4.69,1.75,7.09ZM34.1,32.57c1.78-1.72,3.49-3.36,5.26-5.07-2.35-.67-4.63-1.33-7-2.01.59,2.41,1.16,4.69,1.74,7.08ZM28.41,39.13c2.36.68,4.63,1.33,7.01,2.01-.59-2.39-1.15-4.69-1.74-7.08-1.77,1.7-3.47,3.35-5.26,5.07ZM24.27,22.38c2.36.68,4.63,1.33,7.01,2.01-.59-2.4-1.16-4.69-1.75-7.07-1.78,1.71-3.48,3.35-5.26,5.06ZM40.86,27.15c2.36.68,4.62,1.33,7,2.01-.59-2.4-1.16-4.69-1.75-7.08-1.78,1.72-3.48,3.36-5.26,5.07ZM26.04,31.58c.59,2.39,1.16,4.7,1.75,7.08,1.78-1.71,3.48-3.36,5.25-5.06-2.37-.68-4.64-1.34-7-2.02ZM32.03,24.2c1.78-1.71,3.48-3.35,5.25-5.05-2.37-.68-4.62-1.33-6.99-2.01.59,2.39,1.15,4.67,1.74,7.06ZM41.44,36.01c-2.38-.68-4.64-1.33-6.99-2.01.6,2.41,1.16,4.69,1.74,7.05,1.77-1.7,3.46-3.33,5.24-5.04ZM39.55,26.75c-.59-2.38-1.15-4.66-1.74-7.04-1.77,1.71-3.47,3.35-5.23,5.04,2.36.68,4.61,1.32,6.97,2Z"/>
        </g>
        <g>
          <path d="M35.5,57.2c.16,1.21,1.12,1.79,2.43,1.52.26-.05.51-.23.76-.24.23-.01.47.12.7.18-.1.21-.14.51-.3.6-1.09.6-2.25.67-3.36.11-.4-.2-.78-.62-.97-1.03-.5-1.06-.47-2.17.1-3.21.54-1,1.83-1.42,3.02-1.04,1.1.35,1.84,1.5,1.72,2.64-.04.42-.31.47-.64.47-.95,0-1.91,0-2.86,0-.19,0-.39,0-.59,0ZM35.48,56.34h3.08c-.04-.85-.63-1.45-1.43-1.5-.87-.05-1.49.49-1.65,1.5Z"/>
          <path d="M41.67,57.23c.18,1.22,1.17,1.79,2.49,1.47.3-.07.57-.24.87-.27.17-.02.42.11.51.25.06.1-.04.39-.16.5-1.49,1.31-4.37.38-4.7-1.55-.1-.6-.06-1.27.09-1.86.33-1.34,1.54-2.01,2.98-1.76,1.21.21,2.1,1.4,2.02,2.68-.03.45-.3.52-.66.52-1.04,0-2.09,0-3.13,0-.09,0-.18.01-.31.03ZM44.72,56.34c-.03-.86-.65-1.48-1.47-1.51-.87-.03-1.51.57-1.58,1.51h3.06Z"/>
          <path d="M25.28,54.86c.65-.57,1.26-.93,2.06-.89.98.05,1.76.66,1.82,1.65.07,1.18.04,2.38.04,3.57,0,.34-.23.54-.52.44-.2-.06-.45-.33-.46-.52-.05-.92-.03-1.84-.02-2.76,0-.53-.04-1.03-.57-1.31-.55-.29-1.09-.14-1.58.18-.5.33-.84.72-.78,1.41.07.79.01,1.58.02,2.38,0,.37-.09.65-.53.64-.43-.01-.47-.29-.47-.63,0-2.23,0-4.47,0-6.7,0-.34.06-.64.46-.66.41-.02.55.26.55.64,0,.81,0,1.62,0,2.58Z"/>
          <path d="M54.52,53.92c.46.09.91.18,1.37.28.32.06.49.26.41.58-.08.35-.37.33-.65.3-.56-.05-1.14-.14-1.69-.08-.24.03-.56.35-.63.6-.11.4.3.52.61.61.51.17,1.04.28,1.55.46.74.26,1.07.74,1.06,1.45-.01.68-.42,1.22-1.11,1.44-1,.32-1.96.16-2.87-.3-.14-.07-.18-.37-.26-.56.21-.09.42-.26.62-.24.53.06,1.05.22,1.58.29.22.03.49-.03.67-.15.17-.11.34-.35.35-.54,0-.14-.22-.37-.38-.44-.47-.18-.96-.29-1.44-.44-1.11-.35-1.48-.85-1.35-1.82.11-.83.83-1.36,1.85-1.39.11,0,.22,0,.32,0,0-.02,0-.04.01-.06Z"/>
          <path d="M21.47,52.91v1.18c.4,0,.77,0,1.14,0,.29,0,.56.08.48.41-.04.18-.28.41-.46.44-.34.07-.71.02-1.13.02,0,1.15-.02,2.28.01,3.4.01.41.4.46.74.46.14,0,.3-.1.42-.06.19.06.36.19.55.29-.12.18-.22.49-.36.5-.54.06-1.11.12-1.63,0-.56-.12-.74-.63-.74-1.18,0-1.11,0-2.23,0-3.37-.12-.02-.21-.03-.29-.05-.23-.06-.45-.12-.67-.18.12-.19.22-.39.37-.55.32-.34.66-.67,1-.98.13-.12.31-.18.57-.33Z"/>
          <path d="M50.86,57.78c0,.99,0,1.98,0,2.97-.01,1.19-1,1.83-2.09,1.34-.14-.06-.3-.33-.26-.45.05-.16.27-.35.43-.37.92-.08.93-.06.93-1,0-1.78,0-3.57,0-5.35,0-.11,0-.22,0-.32,0-.35.16-.56.5-.57.35,0,.5.21.49.56,0,1.06,0,2.12,0,3.19Z"/>
          <path d="M31.9,54.63c.52-.22,1.04-.47,1.58-.64.3-.1.59.04.61.42.03.39-.23.5-.57.56-.35.06-.71.15-1.01.31-.43.23-.67.59-.64,1.14.05.83.01,1.66.01,2.49,0,.35,0,.71-.5.72-.51.01-.51-.34-.51-.7,0-1.35,0-2.7,0-4.05,0-.35-.1-.79.41-.86.51-.07.59.34.6.61Z"/>
          <path d="M48.24,59c-.03.42-.25.64-.69.63-.45,0-.65-.24-.64-.68.01-.43.26-.62.65-.62.43,0,.66.22.68.67Z"/>
        </g>
      </g>
    </g>
  </g>
</svg>