<?xml version="1.0" encoding="UTF-8"?><svg id="Capa_1" xmlns="http://www.w3.org/2000/svg" viewBox="0 0 76.06 76.06"><defs><style>.cls-1{fill:#f8f8f8;}.cls-2{fill:#00769f;}</style></defs><g><circle class="cls-2" cx="38.03" cy="38.03" r="38.03"/><circle class="cls-1" cx="38.03" cy="38.03" r="33.66"/></g><path class="cls-2" d="M24.33,31.92l7.16,19.6c-5.01-2.43-8.45-7.56-8.45-13.49,0-2.18,.47-4.24,1.3-6.11Zm23.82,5.35c0-1.85-.66-3.14-1.23-4.14-.76-1.23-1.47-2.28-1.47-3.52,0-1.38,1.04-2.67,2.52-2.67,.06,0,.13,0,.2,.01-2.67-2.45-6.23-3.94-10.13-3.94-5.24,0-9.85,2.69-12.54,6.76,.35,.01,.68,.02,.97,.02,1.57,0,4-.19,4-.19,.81-.05,.9,1.14,.1,1.23,0,0-.81,.09-1.71,.14l5.46,16.24,3.29-9.84-2.33-6.4c-.81-.05-1.57-.14-1.57-.14-.81-.05-.71-1.28,.09-1.23,0,0,2.47,.19,3.95,.19,1.57,0,4-.19,4-.19,.81-.05,.9,1.14,.1,1.23,0,0-.81,.09-1.71,.14l5.42,16.12,1.49-5c.63-2.07,1.13-3.56,1.13-4.84h0Zm-9.86,2.07l-4.5,13.08c1.35,.39,2.76,.61,4.24,.61,1.75,0,3.42-.3,4.98-.85-.04-.06-.08-.13-.11-.2l-4.61-12.63Zm12.9-8.51c.06,.48,.1,.99,.1,1.54,0,1.52-.28,3.23-1.14,5.37l-4.58,13.25c4.46-2.6,7.46-7.43,7.46-12.97,0-2.61-.66-5.06-1.83-7.2h0Zm4.32,7.2c0,9.64-7.85,17.49-17.49,17.49s-17.49-7.85-17.49-17.49,7.84-17.49,17.49-17.49,17.49,7.84,17.49,17.49Zm-.8,0c0-9.2-7.49-16.68-16.68-16.68-9.2,0-16.68,7.48-16.68,16.68s7.49,16.68,16.68,16.68,16.68-7.48,16.68-16.68Z"/></svg>