<?xml version="1.0" encoding="UTF-8" standalone="no"?>
<!DOCTYPE svg PUBLIC "-//W3C//DTD SVG 1.1//EN" "http://www.w3.org/Graphics/SVG/1.1/DTD/svg11.dtd">
<svg width="100%" height="100%" viewBox="0 0 317 317" version="1.1" xmlns="http://www.w3.org/2000/svg" xmlns:xlink="http://www.w3.org/1999/xlink" xml:space="preserve" xmlns:serif="http://www.serif.com/" style="fill-rule:evenodd;clip-rule:evenodd;stroke-linejoin:round;stroke-miterlimit:2;">
    <path d="M158.458,298.708c-77.458,0 -140.25,-62.792 -140.25,-140.25c0,-77.458 62.792,-140.25 140.25,-140.25c77.458,0 140.25,62.792 140.25,140.25c0,77.458 -62.792,140.25 -140.25,140.25m0,-298.708c-87.512,0 -158.458,70.946 -158.458,158.458c0,87.513 70.946,158.458 158.458,158.458c87.512,0 158.458,-70.946 158.458,-158.458c0,-87.512 -70.946,-158.458 -158.458,-158.458" style="fill:rgb(160,160,160);fill-rule:nonzero;"/>
    <path d="M197.25,219.875c-12.708,0 -20.958,-6.042 -24.958,-14l11.167,-6.458c2.917,4.792 6.75,8.333 13.5,8.333c5.667,0 9.292,-2.833 9.292,-6.75c0,-4.667 -3.708,-6.333 -10,-9.125l-3.417,-1.458c-9.875,-4.208 -16.417,-9.5 -16.417,-20.667c0,-10.292 7.833,-18.083 20.042,-18.083c8.708,0 14.958,3.042 19.458,10.958l-10.667,6.833c-2.333,-4.208 -4.875,-5.875 -8.833,-5.875c-3.958,0 -6.542,2.542 -6.542,5.875c0,4.083 2.542,5.75 8.417,8.333l3.417,1.458c11.625,4.958 18.167,10.083 18.167,21.542c0,12.292 -9.708,19.042 -22.667,19.042l0.042,0.042Zm-32.375,-20.667c0,14.167 -8.333,20.667 -20.458,20.667c-10.958,0 -17.292,-5.667 -20.542,-12.542l11.167,-6.75c2.167,3.792 4.083,7.042 8.833,7.042c4.75,0 7.333,-1.75 7.333,-8.625l0,-46.542l13.708,0l0,46.75l-0.042,0Zm-79.292,32.125l145.75,0l0,-145.75l-145.75,-0l0,145.75Z" style="fill:rgb(160,160,160);fill-rule:nonzero;"/>
</svg>
