<?xml version="1.0" encoding="UTF-8"?>
<svg id="Capa_2" data-name="Capa 2" xmlns="http://www.w3.org/2000/svg" viewBox="0 0 50 50">
  <defs>
    <style>
      .cls-1 {
        fill: #9e9e9e;
      }
    </style>
  </defs>
  <g id="Capa_1-2" data-name="Capa 1">
    <path class="cls-1" d="M11.26,45.9c-3.58-2.58-5.47-4.47-7.26-7.21C1.42,34.68,0,29.84,0,25.05,0,11.21,11.16,0,25,0s25,11.21,25,25c0,5.68-1.95,11.37-5.37,15.58-1.42,1.79-2.63,2.84-5.9,5.32v-14.63h2.48v10c1.84-2.16,2.74-3.47,3.63-5.05,1.84-3.26,2.84-7.32,2.84-11.21,0-12.63-10.16-22.89-22.68-22.89S2.32,12.36,2.32,25.15c0,5.84,2.05,11,6.42,16.1v-10h2.53v14.63h0ZM16.21,48.42c-.47-.1-1.58-.63-2.47-1.1v-16.05h2.47v17.16h0ZM31.26,13.16l-6.26-4.84-6.26,4.84-1.37-1.79,7.63-5.95,7.63,5.95-1.37,1.79h0ZM21.21,49.74c-.9-.16-.95-.16-1.26-.26-.26-.05-.37-.05-1.21-.26V15h2.47v34.73ZM26.21,49.95c-.37.05-.47.05-1,.05-.79,0-1.05,0-1.48-.05V15h2.48v34.94ZM31.21,49.16c-.79.26-1.48.42-2.48.63V15h2.48v34.16h0ZM36.26,47.32c-.79.37-1.26.58-2.52,1.16v-17.21h2.52v16.05Z"/>
  </g>
</svg>