<?xml version="1.0" encoding="UTF-8" standalone="no"?>
<!DOCTYPE svg PUBLIC "-//W3C//DTD SVG 1.1//EN" "http://www.w3.org/Graphics/SVG/1.1/DTD/svg11.dtd">
<svg width="100%" height="100%" viewBox="0 0 423 423" version="1.1" xmlns="http://www.w3.org/2000/svg" xmlns:xlink="http://www.w3.org/1999/xlink" xml:space="preserve" xmlns:serif="http://www.serif.com/" style="fill-rule:evenodd;clip-rule:evenodd;stroke-linejoin:round;stroke-miterlimit:2;">
    <g transform="matrix(1,0,0,1,-8745.153837,-7189.839639)">
        <g transform="matrix(5.555556,0,0,5.555556,0,0)">
            <g transform="matrix(1,0,0,1,1612.157691,1298.541135)">
                <path d="M0,67.32C-18.59,67.32 -33.66,52.25 -33.66,33.66C-33.66,15.07 -18.59,0 0,0C18.59,0 33.66,15.07 33.66,33.66C33.66,52.25 18.59,67.32 0,67.32M0,-4.37C-21.003,-4.37 -38.03,12.657 -38.03,33.66C-38.03,54.663 -21.003,71.69 0,71.69C21.003,71.69 38.03,54.663 38.03,33.66C38.03,12.657 21.003,-4.37 0,-4.37" style="fill:rgb(160,160,160);fill-rule:nonzero;"/>
            </g>
        </g>
        <g transform="matrix(5.555556,0,0,5.555556,0,0)">
            <g id="icons" transform="matrix(1.550576,0,0,1.550576,1404.380553,-10031.967847)">
                <path id="linkedin---161-" serif:id="linkedin-[#161]" d="M144,7339L140,7339L140,7332.001C140,7330.081 139.153,7329.01 137.634,7329.01C135.981,7329.01 135,7330.126 135,7332.001L135,7339L131,7339L131,7326L135,7326L135,7327.462C135,7327.462 136.255,7325.26 139.083,7325.26C141.912,7325.26 144,7326.986 144,7330.558L144,7339ZM126.442,7323.921C125.093,7323.921 124,7322.819 124,7321.46C124,7320.102 125.093,7319 126.442,7319C127.79,7319 128.883,7320.102 128.883,7321.46C128.884,7322.819 127.79,7323.921 126.442,7323.921ZM124,7339L129,7339L129,7326L124,7326L124,7339Z" style="fill:rgb(160,160,160);"/>
            </g>
        </g>
    </g>
</svg>
