<?xml version="1.0" standalone="no"?>
<svg viewBox="0 0 200 200" xmlns="http://www.w3.org/2000/svg">
  <path fill="#577BC1" d="M42.7,-68.9C52.9,-59.8,57.2,-43.9,64.2,-29.2C71.2,-14.4,80.9,-0.7,79.6,11.8C78.3,24.2,66,35.3,54,44C42.1,52.7,30.6,59,18.7,61.5C6.7,64,-5.7,62.8,-18.1,59.9C-30.5,57,-42.9,52.5,-50.1,43.7C-57.4,34.9,-59.5,21.9,-60.9,9C-62.4,-3.8,-63.2,-16.5,-58.9,-27.2C-54.5,-38,-45.1,-46.7,-34.4,-55.6C-23.7,-64.6,-11.9,-73.7,2.2,-77.1C16.2,-80.4,32.4,-78,42.7,-68.9Z" transform="translate(100 100)" />
</svg>
